<mxfile host="app.diagrams.net" modified="2023-10-20T19:44:18.693Z" agent="Mozilla/5.0 (X11; Linux x86_64) AppleWebKit/537.36 (KHTML, like Gecko) Chrome/118.0.0.0 Safari/537.36" version="22.0.6" etag="RgLykc0URp_O85Y8n-3k" type="github">
  <diagram name="Page-1" id="X3mkrffIviuJkXtV6vyq">
    <mxGraphModel>
      <root>
        <mxCell id="0" />
        <mxCell id="1" parent="0" />
      </root>
    </mxGraphModel>
  </diagram>
</mxfile>
